<svg xmlns="http://www.w3.org/2000/svg" xmlns:xlink="http://www.w3.org/1999/xlink" width="500" zoomAndPan="magnify" viewBox="0 0 375 374.999991" height="500" preserveAspectRatio="xMidYMid meet" version="1.0"><defs><g/><clipPath id="6e1a7c363c"><path d="M 13.1875 13.1875 L 361.8125 13.1875 L 361.8125 361.8125 L 13.1875 361.8125 Z M 13.1875 13.1875 " clip-rule="nonzero"/></clipPath><clipPath id="98a1f3197c"><path d="M 187.5 13.1875 C 91.230469 13.1875 13.1875 91.230469 13.1875 187.5 C 13.1875 283.769531 91.230469 361.8125 187.5 361.8125 C 283.769531 361.8125 361.8125 283.769531 361.8125 187.5 C 361.8125 91.230469 283.769531 13.1875 187.5 13.1875 Z M 187.5 13.1875 " clip-rule="nonzero"/></clipPath><clipPath id="956cd8f521"><path d="M 4.730469 4.730469 L 369.980469 4.730469 L 369.980469 369.980469 L 4.730469 369.980469 Z M 4.730469 4.730469 " clip-rule="nonzero"/></clipPath></defs><g clip-path="url(#6e1a7c363c)"><g clip-path="url(#98a1f3197c)"><path fill="#ffffff" d="M 13.1875 13.1875 L 361.8125 13.1875 L 361.8125 361.8125 L 13.1875 361.8125 Z M 13.1875 13.1875 " fill-opacity="1" fill-rule="nonzero"/></g></g><g clip-path="url(#956cd8f521)"><path fill="#38b6ff" d="M 187.496094 4.730469 C 86.683594 4.730469 4.730469 86.757812 4.730469 187.496094 C 4.730469 288.3125 86.683594 370.261719 187.496094 370.261719 C 288.238281 370.261719 370.261719 288.3125 370.261719 187.496094 C 370.261719 86.757812 288.238281 4.730469 187.496094 4.730469 Z M 187.496094 356.007812 C 94.578125 356.007812 18.988281 280.414062 18.988281 187.496094 C 18.988281 94.578125 94.578125 18.988281 187.496094 18.988281 C 280.414062 18.988281 356.007812 94.578125 356.007812 187.496094 C 356.007812 280.414062 280.414062 356.007812 187.496094 356.007812 Z M 187.496094 356.007812 " fill-opacity="1" fill-rule="nonzero"/></g><path fill="#38b6ff" d="M 187.496094 28.492188 C 99.84375 28.492188 28.492188 99.84375 28.492188 187.496094 C 28.492188 275.152344 99.84375 346.503906 187.496094 346.503906 C 275.152344 346.503906 346.503906 275.152344 346.503906 187.496094 C 346.503906 99.84375 275.152344 28.492188 187.496094 28.492188 Z M 187.496094 28.492188 " fill-opacity="1" fill-rule="nonzero"/><g fill="#000000" fill-opacity="1"><g transform="translate(91.158334, 135.83954)"><g><path d="M 51.796875 -0.109375 C 51.316406 -0.109375 50.875 -0.175781 50.46875 -0.3125 C 49.789062 -0.507812 48.90625 -1 47.8125 -1.78125 C 46.71875 -2.570312 45.796875 -3.070312 45.046875 -3.28125 C 44.640625 -3.414062 44.398438 -3.484375 44.328125 -3.484375 C 44.253906 -3.484375 44.148438 -3.414062 44.015625 -3.28125 C 42.585938 -1.4375 40.660156 0.382812 38.234375 2.1875 C 35.816406 4 33.257812 5.550781 30.5625 6.84375 C 27.863281 8.144531 25.351562 8.898438 23.03125 9.109375 C 20.300781 9.378906 17.929688 9.71875 15.921875 10.125 C 13.910156 10.539062 11.8125 10.75 9.625 10.75 C 7.09375 10.75 4.257812 10.304688 1.125 9.421875 C -2.007812 8.535156 -5.023438 7.269531 -7.921875 5.625 C -10.828125 3.988281 -13.253906 2.03125 -15.203125 -0.25 C -17.148438 -2.539062 -18.257812 -5.050781 -18.53125 -7.78125 C -18.664062 -9.070312 -18.289062 -9.957031 -17.40625 -10.4375 C -16.445312 -13.851562 -14.273438 -16.140625 -10.890625 -17.296875 C -7.515625 -18.460938 -3.613281 -19.046875 0.8125 -19.046875 C 1.363281 -19.046875 1.910156 -19.023438 2.453125 -18.984375 C 3.003906 -18.953125 3.519531 -18.9375 4 -18.9375 L 4 -19.046875 C 3.925781 -19.585938 3.867188 -20.128906 3.828125 -20.671875 C 3.796875 -21.222656 3.78125 -21.738281 3.78125 -22.21875 C 3.78125 -24.195312 3.929688 -26.054688 4.234375 -27.796875 C 4.546875 -29.535156 4.632812 -31.15625 4.5 -32.65625 L 4.296875 -36.140625 C 4.234375 -36.347656 4.21875 -36.519531 4.25 -36.65625 C 4.28125 -36.789062 4.296875 -36.992188 4.296875 -37.265625 L 4.40625 -41.96875 C 4.332031 -44.632812 4.484375 -47.503906 4.859375 -50.578125 C 5.234375 -53.648438 5.285156 -56.550781 5.015625 -59.28125 L 5.625 -66.03125 C 6.3125 -66.507812 7.132812 -66.75 8.09375 -66.75 C 8.5625 -66.75 9.035156 -66.710938 9.515625 -66.640625 C 9.992188 -66.578125 10.40625 -66.476562 10.75 -66.34375 C 13.34375 -65.382812 15.082031 -64.320312 15.96875 -63.15625 C 16.851562 -62 17.296875 -60.820312 17.296875 -59.625 C 17.296875 -58.4375 17.265625 -57.226562 17.203125 -56 C 18.703125 -57.707031 20.628906 -59.617188 22.984375 -61.734375 C 25.335938 -63.847656 28 -65.6875 30.96875 -67.25 C 33.9375 -68.820312 37.054688 -69.609375 40.328125 -69.609375 C 42.035156 -69.609375 43.640625 -69.367188 45.140625 -68.890625 C 47.804688 -68.078125 49.875 -66.867188 51.34375 -65.265625 C 52.8125 -63.660156 53.9375 -61.898438 54.71875 -59.984375 C 55.5 -58.078125 56.144531 -56.203125 56.65625 -54.359375 C 57.175781 -52.515625 57.773438 -50.910156 58.453125 -49.546875 C 58.796875 -48.929688 58.914062 -48.113281 58.8125 -47.09375 C 58.707031 -46.070312 58.550781 -45.097656 58.34375 -44.171875 C 58.144531 -43.253906 58.082031 -42.519531 58.15625 -41.96875 C 58.21875 -41.488281 58.25 -40.941406 58.25 -40.328125 C 58.25 -39.722656 58.25 -39.113281 58.25 -38.5 C 58.25 -35.96875 58.0625 -33.234375 57.6875 -30.296875 C 57.3125 -27.367188 56.695312 -24.535156 55.84375 -21.796875 C 54.988281 -19.066406 53.847656 -16.679688 52.421875 -14.640625 C 52.554688 -14.640625 52.625 -14.617188 52.625 -14.578125 C 52.625 -14.546875 52.65625 -14.5 52.71875 -14.4375 L 46.890625 -6.046875 C 48.929688 -4.742188 50.34375 -3.648438 51.125 -2.765625 C 51.914062 -1.878906 52.363281 -1.226562 52.46875 -0.8125 C 52.570312 -0.40625 52.585938 -0.203125 52.515625 -0.203125 C 52.453125 -0.203125 52.347656 -0.1875 52.203125 -0.15625 C 52.066406 -0.125 51.929688 -0.109375 51.796875 -0.109375 Z M 17.8125 -51.59375 L 18.015625 -50.46875 C 18.148438 -49.925781 18.164062 -49.347656 18.0625 -48.734375 C 17.96875 -48.117188 17.921875 -47.4375 17.921875 -46.6875 C 17.921875 -45.726562 17.816406 -44.101562 17.609375 -41.8125 C 17.398438 -39.53125 17.125 -36.9375 16.78125 -34.03125 C 16.445312 -31.132812 16.054688 -28.285156 15.609375 -25.484375 C 15.171875 -22.691406 14.710938 -20.304688 14.234375 -18.328125 L 17.8125 -18.015625 C 21.5625 -17.335938 24.71875 -16.535156 27.28125 -15.609375 C 29.84375 -14.691406 32.144531 -13.753906 34.1875 -12.796875 C 35.832031 -14.160156 37.316406 -16.035156 38.640625 -18.421875 C 39.972656 -20.816406 41.117188 -23.515625 42.078125 -26.515625 C 43.035156 -29.515625 43.769531 -32.601562 44.28125 -35.78125 C 44.789062 -38.957031 45.046875 -41.976562 45.046875 -44.84375 C 45.046875 -45.382812 45.046875 -45.945312 45.046875 -46.53125 C 45.046875 -47.113281 45.007812 -47.675781 44.9375 -48.21875 C 44.875 -49.039062 44.753906 -49.84375 44.578125 -50.625 C 44.410156 -51.40625 44.289062 -52.140625 44.21875 -52.828125 L 44.21875 -54.5625 C 44.15625 -55.3125 43.710938 -56.210938 42.890625 -57.265625 C 42.078125 -58.328125 41.101562 -59.390625 39.96875 -60.453125 C 38.84375 -61.515625 37.71875 -62.382812 36.59375 -63.0625 C 35.46875 -63.75 34.53125 -64.09375 33.78125 -64.09375 C 33.507812 -64.09375 33.335938 -64.054688 33.265625 -63.984375 C 31.148438 -63.234375 28.96875 -62.085938 26.71875 -60.546875 C 24.46875 -59.015625 22.519531 -57.410156 20.875 -55.734375 C 19.238281 -54.066406 18.21875 -52.6875 17.8125 -51.59375 Z M 31.421875 -8.59375 C 31.492188 -9.144531 31.703125 -9.625 32.046875 -10.03125 C 30.953125 -11.125 29.242188 -12.097656 26.921875 -12.953125 C 24.597656 -13.804688 22.207031 -14.519531 19.75 -15.09375 C 17.300781 -15.675781 15.289062 -16.035156 13.71875 -16.171875 C 13.175781 -14.460938 12.695312 -13.710938 12.28125 -13.921875 C 11.738281 -13.097656 11.296875 -12.085938 10.953125 -10.890625 C 10.609375 -9.703125 10.097656 -9.109375 9.421875 -9.109375 L 9.21875 -9.109375 C 8.1875 -9.242188 7.28125 -10.113281 6.5 -11.71875 C 5.71875 -13.320312 5.050781 -14.976562 4.5 -16.6875 L 1.4375 -16.890625 C -1.632812 -16.828125 -4.484375 -16.453125 -7.109375 -15.765625 C -9.742188 -15.078125 -11.8125 -13.96875 -13.3125 -12.4375 C -14.8125 -10.90625 -15.523438 -8.804688 -15.453125 -6.140625 C -15.046875 -4.710938 -14.109375 -3.160156 -12.640625 -1.484375 C -11.171875 0.191406 -9.445312 1.691406 -7.46875 3.015625 C -5.488281 4.347656 -3.578125 5.320312 -1.734375 5.9375 C 0.515625 6.625 2.800781 6.96875 5.125 6.96875 C 8.738281 6.96875 12.148438 6.195312 15.359375 4.65625 C 18.566406 3.125 21.535156 1.164062 24.265625 -1.21875 C 26.992188 -3.613281 29.378906 -6.070312 31.421875 -8.59375 Z M 31.421875 -8.59375 "/></g></g></g><g fill="#000000" fill-opacity="1"><g transform="translate(152.576185, 135.83954)"><g><path d="M 7.171875 -64.90625 C 8.398438 -65.789062 9.320312 -66.316406 9.9375 -66.484375 C 10.550781 -66.660156 10.992188 -66.75 11.265625 -66.75 C 12.210938 -66.75 13.078125 -66.335938 13.859375 -65.515625 C 14.648438 -64.703125 15.082031 -63.75 15.15625 -62.65625 L 15.25 -61.9375 C 14.769531 -60.4375 14.1875 -58.882812 13.5 -57.28125 C 12.820312 -55.675781 12.414062 -54.191406 12.28125 -52.828125 C 12.28125 -52.273438 11.804688 -52 10.859375 -52 C 9.628906 -52 8.28125 -52.238281 6.8125 -52.71875 C 5.34375 -53.195312 4.570312 -53.847656 4.5 -54.671875 C 4.363281 -56.171875 4.632812 -57.804688 5.3125 -59.578125 C 6 -61.359375 6.617188 -63.132812 7.171875 -64.90625 Z M 7.171875 -64.90625 "/></g></g></g><g fill="#000000" fill-opacity="1"><g transform="translate(179.292951, 135.83954)"><g><path d="M 9.015625 -7.0625 L 9.21875 -6.046875 C 9.21875 -5.703125 9.285156 -5.253906 9.421875 -4.703125 C 9.554688 -4.429688 9.625 -4.195312 9.625 -4 C 9.757812 -2.96875 10.132812 -2.453125 10.75 -2.453125 L 11.0625 -2.453125 C 12.007812 -2.453125 12.804688 -2.707031 13.453125 -3.21875 C 14.109375 -3.738281 14.742188 -4.335938 15.359375 -5.015625 C 16.171875 -6.171875 17.003906 -7.566406 17.859375 -9.203125 C 18.710938 -10.847656 19.515625 -12.421875 20.265625 -13.921875 C 20.816406 -15.078125 21.363281 -16.1875 21.90625 -17.25 C 22.457031 -18.3125 22.96875 -19.21875 23.4375 -19.96875 C 23.644531 -20.375 23.832031 -20.847656 24 -21.390625 C 24.175781 -21.941406 24.332031 -22.488281 24.46875 -23.03125 C 24.675781 -23.644531 24.878906 -24.101562 25.078125 -24.40625 C 25.285156 -24.71875 25.457031 -24.976562 25.59375 -25.1875 C 25.800781 -25.382812 26.070312 -25.929688 26.40625 -26.828125 C 26.40625 -27.296875 26.726562 -27.632812 27.375 -27.84375 C 28.03125 -28.050781 28.75 -28.1875 29.53125 -28.25 C 30.320312 -28.320312 30.882812 -28.359375 31.21875 -28.359375 C 32.175781 -28.359375 33.0625 -28.304688 33.875 -28.203125 C 34.695312 -28.097656 35.484375 -27.671875 36.234375 -26.921875 C 36.304688 -26.785156 36.34375 -26.648438 36.34375 -26.515625 L 36.34375 -26.40625 L 36.546875 -26.3125 L 36.453125 -26.3125 C 36.722656 -26.101562 36.957031 -25.894531 37.15625 -25.6875 C 37.363281 -25.488281 37.503906 -25.1875 37.578125 -24.78125 C 37.640625 -24.632812 37.550781 -24.238281 37.3125 -23.59375 C 37.070312 -22.945312 36.816406 -22.28125 36.546875 -21.59375 C 36.066406 -20.4375 35.828125 -19.6875 35.828125 -19.34375 C 35.828125 -19.070312 35.757812 -18.734375 35.625 -18.328125 C 35.488281 -18.054688 35.332031 -17.628906 35.15625 -17.046875 C 34.988281 -16.460938 34.90625 -15.59375 34.90625 -14.4375 C 34.84375 -13.613281 34.722656 -12.878906 34.546875 -12.234375 C 34.378906 -11.585938 34.160156 -10.957031 33.890625 -10.34375 C 33.753906 -9.925781 33.613281 -9.515625 33.46875 -9.109375 C 33.332031 -8.703125 33.195312 -8.257812 33.0625 -7.78125 L 31.84375 -4.09375 C 31.15625 -2.726562 30.847656 -1.875 30.921875 -1.53125 C 30.921875 -1.394531 31.109375 -1.289062 31.484375 -1.21875 C 31.859375 -1.15625 32.179688 -1.125 32.453125 -1.125 C 33.273438 -1.125 34.195312 -1.566406 35.21875 -2.453125 C 36.238281 -3.335938 37.242188 -4.410156 38.234375 -5.671875 C 39.222656 -6.941406 40.023438 -8.085938 40.640625 -9.109375 L 43.71875 -14.53125 C 43.988281 -14.945312 44.328125 -15.441406 44.734375 -16.015625 C 45.148438 -16.597656 45.523438 -17.300781 45.859375 -18.125 C 46.066406 -18.601562 46.375 -19.148438 46.78125 -19.765625 C 47.195312 -20.378906 47.539062 -20.921875 47.8125 -21.390625 L 50.265625 -25.28125 C 50.609375 -25.625 51.019531 -25.796875 51.5 -25.796875 C 52.113281 -25.796875 52.453125 -25.457031 52.515625 -24.78125 C 52.515625 -24.632812 52.515625 -24.476562 52.515625 -24.3125 C 52.515625 -24.144531 52.484375 -23.925781 52.421875 -23.65625 C 52.421875 -23.445312 52.113281 -22.863281 51.5 -21.90625 C 51.082031 -21.363281 50.550781 -20.613281 49.90625 -19.65625 C 49.257812 -18.695312 48.492188 -17.4375 47.609375 -15.875 C 47.265625 -15.394531 46.75 -14.625 46.0625 -13.5625 C 45.382812 -12.507812 44.671875 -11.367188 43.921875 -10.140625 C 43.097656 -8.835938 42.3125 -7.570312 41.5625 -6.34375 C 40.8125 -5.113281 40.234375 -4.226562 39.828125 -3.6875 C 39.554688 -3.070312 38.972656 -2.285156 38.078125 -1.328125 C 37.191406 -0.367188 36.253906 0.460938 35.265625 1.171875 C 34.273438 1.890625 33.441406 2.285156 32.765625 2.359375 L 31.9375 2.65625 C 31.53125 2.789062 31.140625 2.925781 30.765625 3.0625 C 30.390625 3.207031 30 3.28125 29.59375 3.28125 C 28.5625 3.28125 27.535156 2.90625 26.515625 2.15625 C 25.492188 1.40625 24.609375 0.5 23.859375 -0.5625 C 23.109375 -1.625 22.59375 -2.5625 22.3125 -3.375 C 21.976562 -4.257812 21.8125 -5.21875 21.8125 -6.25 C 21.738281 -6.519531 21.703125 -6.804688 21.703125 -7.109375 C 21.703125 -7.421875 21.703125 -7.710938 21.703125 -7.984375 C 21.703125 -8.253906 21.703125 -8.523438 21.703125 -8.796875 C 21.703125 -9.078125 21.664062 -9.382812 21.59375 -9.71875 L 21.5 -10.546875 C 21.5 -10.609375 21.515625 -10.65625 21.546875 -10.6875 C 21.578125 -10.726562 21.59375 -10.785156 21.59375 -10.859375 C 21.664062 -11.265625 21.703125 -11.429688 21.703125 -11.359375 L 20.265625 -9.21875 L 20.265625 -9.3125 L 18.328125 -5.421875 C 18.054688 -5.148438 17.847656 -4.894531 17.703125 -4.65625 C 17.566406 -4.414062 17.429688 -4.160156 17.296875 -3.890625 C 16.753906 -3.003906 16.15625 -2.1875 15.5 -1.4375 C 14.851562 -0.6875 14.222656 -0.273438 13.609375 -0.203125 L 13.203125 0.109375 C 12.523438 0.578125 11.894531 1.015625 11.3125 1.421875 C 10.726562 1.835938 10.195312 2.046875 9.71875 2.046875 C 8.082031 2.046875 6.34375 1.703125 4.5 1.015625 C 2.65625 0.335938 1.070312 -0.75 -0.25 -2.25 C -1.582031 -3.75 -2.382812 -5.726562 -2.65625 -8.1875 C -2.789062 -10.507812 -2.328125 -13.15625 -1.265625 -16.125 C -0.210938 -19.09375 1.09375 -21.875 2.65625 -24.46875 L 3.578125 -26.515625 C 4.878906 -28.222656 6.265625 -29.910156 7.734375 -31.578125 C 9.203125 -33.253906 10.820312 -34.707031 12.59375 -35.9375 L 14.125 -36.65625 L 14.03125 -36.65625 C 15.394531 -37.601562 17.066406 -38.382812 19.046875 -39 C 21.023438 -39.613281 22.5625 -39.921875 23.65625 -39.921875 L 24.15625 -39.921875 C 25.113281 -39.722656 26.207031 -39.226562 27.4375 -38.4375 C 28.664062 -37.65625 29.773438 -36.820312 30.765625 -35.9375 C 31.753906 -35.050781 32.28125 -34.265625 32.34375 -33.578125 C 32.488281 -32.484375 32.082031 -31.835938 31.125 -31.640625 C 30.988281 -31.703125 30.75 -31.734375 30.40625 -31.734375 C 29.3125 -31.734375 27.773438 -31.492188 25.796875 -31.015625 C 23.816406 -30.535156 22.25 -29.679688 21.09375 -28.453125 L 19.25 -26.71875 C 18.363281 -25.894531 17.441406 -25.003906 16.484375 -24.046875 C 15.523438 -23.097656 14.910156 -22.046875 14.640625 -20.890625 C 14.160156 -20.066406 13.75 -19.28125 13.40625 -18.53125 C 13.070312 -17.78125 12.734375 -16.992188 12.390625 -16.171875 L 11.46875 -14.234375 C 11.125 -13.484375 10.796875 -12.78125 10.484375 -12.125 C 10.179688 -11.476562 9.859375 -10.675781 9.515625 -9.71875 L 9.421875 -9.109375 L 9.421875 -9.21875 C 9.347656 -8.875 9.242188 -8.476562 9.109375 -8.03125 C 8.972656 -7.59375 8.90625 -7.304688 8.90625 -7.171875 Z M 9.015625 -7.0625 "/></g></g></g><g fill="#000000" fill-opacity="1"><g transform="translate(224.639807, 135.83954)"><g><path d="M 32.140625 -27.84375 L 31.734375 -26.828125 C 31.117188 -25.179688 30.210938 -23.25 29.015625 -21.03125 C 27.828125 -18.8125 26.515625 -16.613281 25.078125 -14.4375 C 25.148438 -14.5 25.097656 -14.410156 24.921875 -14.171875 C 24.753906 -13.941406 24.601562 -13.753906 24.46875 -13.609375 C 23.78125 -12.585938 23.023438 -11.476562 22.203125 -10.28125 C 21.390625 -9.09375 20.570312 -8.070312 19.75 -7.21875 C 18.9375 -6.363281 18.1875 -5.9375 17.5 -5.9375 C 17.4375 -5.9375 17.367188 -5.953125 17.296875 -5.984375 C 17.234375 -6.023438 17.164062 -6.046875 17.09375 -6.046875 C 16 -5.359375 15.039062 -4.828125 14.21875 -4.453125 C 13.40625 -4.078125 12.585938 -3.890625 11.765625 -3.890625 C 9.453125 -4.097656 7.59375 -5.085938 6.1875 -6.859375 C 4.789062 -8.628906 3.800781 -10.707031 3.21875 -13.09375 C 2.644531 -15.488281 2.359375 -17.675781 2.359375 -19.65625 C 2.359375 -23.476562 2.867188 -27.640625 3.890625 -32.140625 C 3.890625 -32.691406 3.957031 -33.867188 4.09375 -35.671875 C 4.226562 -37.484375 4.445312 -39.460938 4.75 -41.609375 C 5.0625 -43.765625 5.351562 -45.554688 5.625 -46.984375 C 5.625 -48.285156 5.757812 -49.632812 6.03125 -51.03125 C 6.3125 -52.425781 6.585938 -53.671875 6.859375 -54.765625 C 7.128906 -55.796875 7.382812 -56.835938 7.625 -57.890625 C 7.863281 -58.953125 8.019531 -60.0625 8.09375 -61.21875 C 8.09375 -61.289062 8.140625 -61.613281 8.234375 -62.1875 C 8.335938 -62.769531 8.492188 -63.4375 8.703125 -64.1875 L 8.390625 -64.90625 C 8.390625 -65.25 8.425781 -65.453125 8.5 -65.515625 C 8.769531 -67.835938 9.054688 -70.242188 9.359375 -72.734375 C 9.671875 -75.222656 10.097656 -77.335938 10.640625 -79.078125 C 11.191406 -80.816406 11.875 -81.6875 12.6875 -81.6875 C 13.445312 -81.6875 14.59375 -81.257812 16.125 -80.40625 C 17.65625 -79.5625 18.898438 -78.25 19.859375 -76.46875 C 20.816406 -75.988281 21.789062 -75.117188 22.78125 -73.859375 C 23.769531 -72.597656 24.398438 -71.113281 24.671875 -69.40625 C 24.878906 -68.3125 24.707031 -66.773438 24.15625 -64.796875 C 23.613281 -62.816406 22.96875 -60.671875 22.21875 -58.359375 L 22.21875 -58.046875 C 22.28125 -57.773438 22.328125 -57.484375 22.359375 -57.171875 C 22.398438 -56.867188 22.421875 -56.546875 22.421875 -56.203125 L 19.65625 -46.78125 C 19.789062 -45.96875 19.890625 -44.992188 19.953125 -43.859375 C 20.023438 -42.734375 20.097656 -41.832031 20.171875 -41.15625 C 20.234375 -40.882812 20.265625 -40.628906 20.265625 -40.390625 C 20.265625 -40.148438 20.265625 -40.03125 20.265625 -40.03125 L 17.296875 -31.015625 C 17.296875 -30.671875 17.332031 -30.398438 17.40625 -30.203125 L 17.40625 -30 L 17.609375 -28.875 C 17.671875 -28.738281 17.703125 -28.550781 17.703125 -28.3125 C 17.703125 -28.070312 17.703125 -27.8125 17.703125 -27.53125 C 17.703125 -27.257812 17.71875 -26.988281 17.75 -26.71875 C 17.789062 -26.445312 17.847656 -26.175781 17.921875 -25.90625 C 17.441406 -24.601562 17.015625 -23.335938 16.640625 -22.109375 C 16.265625 -20.878906 15.90625 -19.6875 15.5625 -18.53125 L 16.078125 -15.15625 C 15.179688 -12.695312 14.804688 -10.851562 14.953125 -9.625 C 15.085938 -9.144531 15.320312 -8.90625 15.65625 -8.90625 C 16.070312 -8.90625 16.753906 -9.398438 17.703125 -10.390625 C 18.660156 -11.378906 19.738281 -12.675781 20.9375 -14.28125 C 22.132812 -15.882812 23.34375 -17.625 24.5625 -19.5 C 25.789062 -21.375 26.851562 -23.234375 27.75 -25.078125 L 27.640625 -25.078125 C 27.773438 -25.285156 27.859375 -25.488281 27.890625 -25.6875 C 27.929688 -25.894531 27.984375 -26.066406 28.046875 -26.203125 L 28.359375 -27.4375 L 28.359375 -27.328125 C 28.492188 -27.609375 28.695312 -28.003906 28.96875 -28.515625 C 29.238281 -29.023438 29.515625 -29.585938 29.796875 -30.203125 C 30.265625 -31.160156 30.703125 -32.046875 31.109375 -32.859375 C 31.523438 -33.679688 31.867188 -34.09375 32.140625 -34.09375 L 32.34375 -34.09375 C 32.6875 -34.4375 33.066406 -34.609375 33.484375 -34.609375 C 33.953125 -34.609375 34.289062 -34.367188 34.5 -33.890625 C 34.5 -33.617188 34.378906 -33.070312 34.140625 -32.25 C 33.898438 -31.425781 33.203125 -29.957031 32.046875 -27.84375 Z M 32.140625 -27.84375 "/></g></g></g><g fill="#000000" fill-opacity="1"><g transform="translate(247.671515, 135.83954)"><g><path d="M 22.3125 -42.171875 C 22.59375 -42.171875 23.175781 -42.117188 24.0625 -42.015625 C 24.945312 -41.921875 25.914062 -41.648438 26.96875 -41.203125 C 28.03125 -40.765625 29.003906 -40.066406 29.890625 -39.109375 C 30.773438 -38.148438 31.320312 -36.785156 31.53125 -35.015625 C 31.53125 -33.441406 31.1875 -31.9375 30.5 -30.5 C 30.4375 -30.226562 30.195312 -29.679688 29.78125 -28.859375 C 29.375 -28.046875 28.878906 -27.195312 28.296875 -26.3125 C 27.722656 -25.425781 27.195312 -24.707031 26.71875 -24.15625 L 26.203125 -23.75 C 24.910156 -21.90625 23.273438 -20.234375 21.296875 -18.734375 C 20.890625 -18.253906 20.222656 -17.617188 19.296875 -16.828125 C 18.378906 -16.046875 17.472656 -15.332031 16.578125 -14.6875 C 15.691406 -14.039062 15.046875 -13.613281 14.640625 -13.40625 L 12.078125 -12.1875 C 11.597656 -11.632812 11.289062 -10.796875 11.15625 -9.671875 C 11.019531 -8.546875 10.953125 -7.367188 10.953125 -6.140625 C 10.953125 -5.179688 10.984375 -4.238281 11.046875 -3.3125 C 11.117188 -2.394531 11.191406 -1.632812 11.265625 -1.03125 C 11.328125 -0.476562 11.75 -0.0351562 12.53125 0.296875 C 13.320312 0.640625 14.160156 0.8125 15.046875 0.8125 C 16.066406 0.8125 17.5 0.351562 19.34375 -0.5625 C 21.1875 -1.476562 23.203125 -2.804688 25.390625 -4.546875 C 27.578125 -6.296875 29.625 -8.398438 31.53125 -10.859375 C 31.664062 -11.191406 31.851562 -11.507812 32.09375 -11.8125 C 32.332031 -12.125 32.519531 -12.414062 32.65625 -12.6875 C 33 -13.238281 33.523438 -13.890625 34.234375 -14.640625 C 34.953125 -15.390625 35.550781 -16.207031 36.03125 -17.09375 C 36.988281 -18.664062 37.925781 -20.1875 38.84375 -21.65625 C 39.769531 -23.125 40.472656 -23.925781 40.953125 -24.0625 C 41.296875 -24.257812 41.601562 -24.359375 41.875 -24.359375 L 42.390625 -24.5625 L 42.390625 -24.46875 C 42.523438 -24.53125 42.609375 -24.578125 42.640625 -24.609375 C 42.671875 -24.648438 42.6875 -24.671875 42.6875 -24.671875 C 42.820312 -24.671875 42.925781 -24.429688 43 -23.953125 C 43.0625 -23.410156 42.867188 -22.796875 42.421875 -22.109375 C 41.984375 -21.429688 41.390625 -20.613281 40.640625 -19.65625 C 40.367188 -19.113281 39.957031 -18.414062 39.40625 -17.5625 C 38.863281 -16.707031 38.285156 -15.90625 37.671875 -15.15625 L 37.15625 -14.328125 C 37.15625 -14.265625 37.085938 -14.097656 36.953125 -13.828125 L 36.65625 -12.90625 L 34.609375 -10.234375 C 33.992188 -9.421875 33.273438 -8.585938 32.453125 -7.734375 C 31.628906 -6.878906 30.976562 -6.039062 30.5 -5.21875 L 30.296875 -5.015625 C 29.617188 -4.128906 28.785156 -3.171875 27.796875 -2.140625 C 26.804688 -1.117188 25.832031 -0.300781 24.875 0.3125 L 21.703125 2.453125 C 20.410156 3.335938 19.179688 4.085938 18.015625 4.703125 C 16.859375 5.316406 15.492188 5.625 13.921875 5.625 C 12.554688 5.625 11.035156 5.46875 9.359375 5.15625 C 7.691406 4.851562 6.28125 4.328125 5.125 3.578125 L 5.015625 3.484375 C 4.128906 3.140625 3.15625 2.421875 2.09375 1.328125 C 1.039062 0.234375 0.34375 -1.4375 0 -3.6875 L 0.109375 -3.6875 C -0.171875 -4.09375 -0.394531 -4.515625 -0.5625 -4.953125 C -0.726562 -5.398438 -0.8125 -5.832031 -0.8125 -6.25 C -0.8125 -6.25 -0.8125 -6.570312 -0.8125 -7.21875 C -0.8125 -7.863281 -0.78125 -8.5625 -0.71875 -9.3125 C -0.71875 -10.0625 -0.695312 -10.742188 -0.65625 -11.359375 C -0.625 -11.972656 -0.644531 -12.316406 -0.71875 -12.390625 C -0.71875 -13.484375 -0.648438 -14.570312 -0.515625 -15.65625 C -0.378906 -16.75 -0.242188 -17.84375 -0.109375 -18.9375 C -0.109375 -19.144531 -0.0703125 -19.28125 0 -19.34375 C 0 -19.476562 0.015625 -19.613281 0.046875 -19.75 C 0.0859375 -19.894531 0.109375 -20 0.109375 -20.0625 C 0.378906 -21.226562 0.734375 -22.335938 1.171875 -23.390625 C 1.617188 -24.453125 2.082031 -25.492188 2.5625 -26.515625 L 3.28125 -28.453125 L 3.6875 -29.078125 C 4.226562 -29.890625 4.835938 -30.84375 5.515625 -31.9375 C 6.203125 -33.03125 6.785156 -33.75 7.265625 -34.09375 L 8.59375 -35.53125 C 9.144531 -36.207031 9.726562 -36.867188 10.34375 -37.515625 C 10.957031 -38.171875 11.570312 -38.734375 12.1875 -39.203125 C 12.519531 -39.546875 12.789062 -39.753906 13 -39.828125 L 13 -39.71875 L 13.515625 -40.125 C 13.992188 -40.539062 14.453125 -40.816406 14.890625 -40.953125 C 15.335938 -41.085938 15.734375 -41.15625 16.078125 -41.15625 C 16.210938 -41.15625 16.363281 -41.132812 16.53125 -41.09375 C 16.707031 -41.0625 16.863281 -41.046875 17 -41.046875 L 17.703125 -41.046875 C 17.984375 -41.046875 18.394531 -41.21875 18.9375 -41.5625 C 19.207031 -41.695312 19.476562 -41.816406 19.75 -41.921875 C 20.03125 -42.023438 20.269531 -42.078125 20.46875 -42.078125 C 20.675781 -42.078125 20.816406 -42.039062 20.890625 -41.96875 C 21.160156 -42.101562 21.414062 -42.171875 21.65625 -42.171875 C 21.894531 -42.171875 22.113281 -42.171875 22.3125 -42.171875 Z M 21.390625 -29.59375 L 20.890625 -29.171875 C 20.816406 -29.109375 20.726562 -28.972656 20.625 -28.765625 C 20.519531 -28.554688 20.4375 -28.351562 20.375 -28.15625 C 20.375 -28.082031 20.335938 -28.007812 20.265625 -27.9375 C 20.203125 -27.875 20.171875 -27.8125 20.171875 -27.75 C 18.804688 -25.625 17.628906 -23.570312 16.640625 -21.59375 C 15.648438 -19.613281 14.984375 -18.113281 14.640625 -17.09375 C 15.046875 -17.300781 15.453125 -17.570312 15.859375 -17.90625 C 16.273438 -18.25 16.65625 -18.5625 17 -18.84375 L 19.25 -20.6875 C 21.289062 -22.664062 23.03125 -24.757812 24.46875 -26.96875 C 25.90625 -29.1875 26.65625 -31.21875 26.71875 -33.0625 C 26.582031 -33.195312 26.425781 -33.347656 26.25 -33.515625 C 26.082031 -33.691406 25.898438 -33.816406 25.703125 -33.890625 C 25.285156 -33.816406 24.648438 -33.335938 23.796875 -32.453125 C 22.941406 -31.566406 22.140625 -30.613281 21.390625 -29.59375 Z M 21.390625 -29.59375 "/></g></g></g><g fill="#000000" fill-opacity="1"><g transform="translate(87.048245, 257.245251)"><g><path d="M 56.609375 -30.71875 L 56.921875 -27.234375 C 56.847656 -27.160156 56.828125 -27.054688 56.859375 -26.921875 C 56.898438 -26.785156 56.921875 -26.648438 56.921875 -26.515625 C 56.984375 -26.035156 56.859375 -24.53125 56.546875 -22 C 56.242188 -19.476562 55.101562 -15.59375 53.125 -10.34375 L 49.859375 4 L 49.953125 5.21875 C 50.085938 6.238281 49.914062 7.484375 49.4375 8.953125 C 48.96875 10.421875 48.492188 11.875 48.015625 13.3125 L 44.734375 22.515625 C 44.597656 22.796875 44.53125 23.035156 44.53125 23.234375 L 40.84375 30.296875 L 35.734375 38.59375 C 33.816406 42.144531 31.816406 45.351562 29.734375 48.21875 C 27.660156 51.082031 25.441406 53.347656 23.078125 55.015625 C 20.722656 56.691406 18.113281 57.53125 15.25 57.53125 C 13.882812 57.53125 12.46875 57.15625 11 56.40625 C 9.53125 55.65625 8.265625 54.664062 7.203125 53.4375 C 6.148438 52.207031 5.554688 50.878906 5.421875 49.453125 C 5.421875 49.242188 5.472656 48.40625 5.578125 46.9375 C 5.679688 45.46875 5.882812 43.757812 6.1875 41.8125 C 6.5 39.875 7.007812 38.101562 7.71875 36.5 C 8.4375 34.894531 9.410156 33.890625 10.640625 33.484375 C 12.898438 30.472656 15.441406 27.566406 18.265625 24.765625 C 21.097656 21.972656 23.882812 19.453125 26.625 17.203125 L 33.265625 11.765625 C 33.609375 11.085938 34.050781 10.1875 34.59375 9.0625 C 35.144531 7.9375 35.726562 6.65625 36.34375 5.21875 C 36.882812 3.925781 37.289062 2.375 37.5625 0.5625 C 37.84375 -1.25 38.117188 -2.90625 38.390625 -4.40625 C 37.703125 -3.988281 37.035156 -3.609375 36.390625 -3.265625 C 35.742188 -2.929688 35.113281 -2.59375 34.5 -2.25 C 33.613281 -1.570312 32.347656 -1.078125 30.703125 -0.765625 C 29.066406 -0.460938 27.378906 -0.257812 25.640625 -0.15625 C 23.898438 -0.0507812 22.414062 0 21.1875 0 C 17.4375 0 13.9375 -0.613281 10.6875 -1.84375 C 7.445312 -3.070312 4.785156 -4.960938 2.703125 -7.515625 C 0.628906 -10.078125 -0.578125 -13.40625 -0.921875 -17.5 C -0.992188 -18.050781 -1.046875 -18.632812 -1.078125 -19.25 C -1.109375 -19.863281 -1.09375 -20.476562 -1.03125 -21.09375 L -1.4375 -23.34375 L -1.734375 -26.40625 C -1.597656 -27.976562 -1.171875 -29.941406 -0.453125 -32.296875 C 0.253906 -34.648438 0.953125 -36.882812 1.640625 -39 L 0.515625 -39.3125 C -3.378906 -39.988281 -6.484375 -41.234375 -8.796875 -43.046875 C -11.117188 -44.859375 -12.414062 -47.4375 -12.6875 -50.78125 C -12.894531 -52.757812 -12.742188 -54.617188 -12.234375 -56.359375 C -11.722656 -58.097656 -11.09375 -59.613281 -10.34375 -60.90625 L -8.5 -64.90625 C -7.675781 -65.726562 -6.957031 -66.140625 -6.34375 -66.140625 C -5.9375 -66.066406 -5.734375 -65.960938 -5.734375 -65.828125 C -5.734375 -65.554688 -5.882812 -65.160156 -6.1875 -64.640625 C -6.5 -64.128906 -6.617188 -63.5 -6.546875 -62.75 C -6.347656 -60.976562 -5.835938 -59.238281 -5.015625 -57.53125 C -5.085938 -57.257812 -5.171875 -56.953125 -5.265625 -56.609375 C -5.367188 -56.265625 -5.488281 -55.925781 -5.625 -55.59375 L -6.046875 -53.640625 C -6.046875 -53.367188 -6.0625 -53.078125 -6.09375 -52.765625 C -6.125 -52.460938 -6.109375 -52.140625 -6.046875 -51.796875 C -5.898438 -50.023438 -4.890625 -48.523438 -3.015625 -47.296875 C -1.140625 -46.066406 0.988281 -45.144531 3.375 -44.53125 C 3.445312 -44.53125 3.671875 -44.988281 4.046875 -45.90625 C 4.421875 -46.832031 4.796875 -47.820312 5.171875 -48.875 C 5.546875 -49.9375 5.800781 -50.601562 5.9375 -50.875 C 6.070312 -51.695312 6.238281 -52.484375 6.4375 -53.234375 C 6.644531 -53.984375 6.921875 -54.703125 7.265625 -55.390625 L 8.296875 -57.4375 L 7.984375 -57.734375 C 8.117188 -57.734375 8.457031 -58.054688 9 -58.703125 C 9.550781 -59.359375 10.132812 -60.09375 10.75 -60.90625 C 11.363281 -61.726562 11.84375 -62.3125 12.1875 -62.65625 L 14.640625 -65.109375 C 14.847656 -65.109375 15.019531 -65.175781 15.15625 -65.3125 L 16.28125 -66.640625 C 16.34375 -66.773438 16.441406 -66.910156 16.578125 -67.046875 C 16.722656 -67.191406 16.828125 -67.296875 16.890625 -67.359375 C 21.734375 -72.140625 26.351562 -75.519531 30.75 -77.5 C 35.15625 -79.476562 39.035156 -80.46875 42.390625 -80.46875 C 43.410156 -80.46875 44.257812 -80.414062 44.9375 -80.3125 C 45.625 -80.207031 46.613281 -79.78125 47.90625 -79.03125 C 50.019531 -78.96875 51.675781 -78.441406 52.875 -77.453125 C 54.070312 -76.460938 54.925781 -75.316406 55.4375 -74.015625 C 55.945312 -72.722656 56.238281 -71.492188 56.3125 -70.328125 C 56.445312 -69.441406 56.445312 -68.691406 56.3125 -68.078125 C 56.445312 -67.941406 56.515625 -67.769531 56.515625 -67.5625 C 56.515625 -67.363281 56.515625 -67.195312 56.515625 -67.0625 L 56.609375 -66.34375 C 56.742188 -64.84375 56.398438 -63.375 55.578125 -61.9375 C 54.765625 -60.5 53.742188 -59.164062 52.515625 -57.9375 C 52.378906 -57.800781 52.3125 -57.632812 52.3125 -57.4375 L 52.421875 -56.921875 C 50.773438 -54.804688 48.65625 -52.722656 46.0625 -50.671875 C 43.46875 -48.628906 40.707031 -46.820312 37.78125 -45.25 L 36.75 -44.734375 C 35.9375 -44.390625 34.691406 -43.859375 33.015625 -43.140625 C 31.335938 -42.429688 29.59375 -41.800781 27.78125 -41.25 C 25.976562 -40.707031 24.429688 -40.4375 23.140625 -40.4375 L 22.9375 -40.4375 C 21.226562 -39.957031 19.757812 -39.597656 18.53125 -39.359375 C 17.300781 -39.117188 16.648438 -39 16.578125 -39 L 14.4375 -32.765625 C 13.414062 -31.054688 12.5625 -29.3125 11.875 -27.53125 C 11.195312 -25.757812 10.617188 -24.160156 10.140625 -22.734375 L 9.9375 -20.984375 C 9.863281 -20.503906 9.804688 -19.988281 9.765625 -19.4375 C 9.734375 -18.894531 9.71875 -18.316406 9.71875 -17.703125 C 9.71875 -16.617188 9.785156 -15.359375 9.921875 -13.921875 C 10.066406 -12.484375 10.304688 -10.707031 10.640625 -8.59375 C 10.847656 -6.414062 11.6875 -4.929688 13.15625 -4.140625 C 14.625 -3.359375 16.414062 -2.96875 18.53125 -2.96875 C 21.332031 -2.96875 24.164062 -3.476562 27.03125 -4.5 C 29.894531 -5.53125 32.46875 -6.984375 34.75 -8.859375 C 37.039062 -10.734375 38.765625 -12.898438 39.921875 -15.359375 L 40.953125 -16.890625 C 41.085938 -17.160156 41.1875 -17.46875 41.25 -17.8125 C 41.320312 -18.15625 41.394531 -18.5 41.46875 -18.84375 C 42.21875 -22.050781 42.914062 -25.140625 43.5625 -28.109375 C 44.207031 -31.078125 44.632812 -33.378906 44.84375 -35.015625 C 44.707031 -35.359375 44.535156 -35.644531 44.328125 -35.875 C 44.117188 -36.113281 43.984375 -36.304688 43.921875 -36.453125 C 43.921875 -36.648438 44.3125 -36.867188 45.09375 -37.109375 C 45.882812 -37.347656 46.960938 -37.46875 48.328125 -37.46875 C 49.078125 -37.46875 49.773438 -37.296875 50.421875 -36.953125 C 51.066406 -36.617188 51.59375 -35.867188 52 -34.703125 L 55.1875 -33.984375 L 56 -32.5625 C 56.0625 -32.28125 56.160156 -31.984375 56.296875 -31.671875 C 56.441406 -31.367188 56.546875 -31.050781 56.609375 -30.71875 Z M 34.5 -63.578125 L 34.296875 -63.0625 L 30.09375 -59.578125 C 29.613281 -59.171875 29.148438 -58.757812 28.703125 -58.34375 C 28.265625 -57.9375 27.804688 -57.460938 27.328125 -56.921875 L 26.921875 -55.890625 L 24.671875 -53.125 C 23.921875 -52.175781 23.238281 -51.222656 22.625 -50.265625 C 22.007812 -49.304688 21.429688 -48.421875 20.890625 -47.609375 L 18.625 -43.40625 C 22.863281 -43.75 26.992188 -44.617188 31.015625 -46.015625 C 35.046875 -47.410156 38.320312 -49.816406 40.84375 -53.234375 C 41.875 -53.640625 43.222656 -54.40625 44.890625 -55.53125 C 46.566406 -56.664062 47.984375 -57.878906 49.140625 -59.171875 C 49.484375 -60.128906 49.804688 -61.101562 50.109375 -62.09375 C 50.421875 -63.082031 50.675781 -64.054688 50.875 -65.015625 C 51.21875 -66.515625 51.203125 -67.640625 50.828125 -68.390625 C 50.453125 -69.140625 49.941406 -69.648438 49.296875 -69.921875 C 48.648438 -70.191406 48.035156 -70.359375 47.453125 -70.421875 C 46.867188 -70.492188 46.546875 -70.566406 46.484375 -70.640625 C 45.316406 -70.640625 43.984375 -70.28125 42.484375 -69.5625 C 40.984375 -68.84375 39.347656 -67.800781 37.578125 -66.4375 Z M 9.421875 44.4375 L 9.109375 46.28125 C 9.046875 46.75 9.128906 47.1875 9.359375 47.59375 C 9.597656 48.007812 9.71875 48.421875 9.71875 48.828125 C 9.863281 49.921875 10.34375 50.6875 11.15625 51.125 C 11.976562 51.570312 12.832031 51.796875 13.71875 51.796875 C 13.988281 51.796875 14.226562 51.765625 14.4375 51.703125 C 15.726562 51.359375 17.039062 50.570312 18.375 49.34375 C 19.707031 48.113281 20.988281 46.644531 22.21875 44.9375 C 22.351562 44.738281 22.675781 44.191406 23.1875 43.296875 C 23.695312 42.410156 24.242188 41.335938 24.828125 40.078125 C 25.410156 38.816406 25.90625 37.601562 26.3125 36.4375 C 26.71875 35.28125 26.890625 34.363281 26.828125 33.6875 L 29.484375 25.90625 C 30.097656 23.988281 30.644531 22.332031 31.125 20.9375 C 31.601562 19.539062 31.84375 18.535156 31.84375 17.921875 C 31.769531 17.921875 31.390625 18.140625 30.703125 18.578125 C 30.023438 19.023438 29.414062 19.519531 28.875 20.0625 L 24.0625 24.671875 C 22.144531 26.304688 20.160156 28.179688 18.109375 30.296875 C 16.066406 32.421875 14.242188 34.570312 12.640625 36.75 C 11.035156 38.9375 9.828125 40.953125 9.015625 42.796875 C 9.078125 43.609375 9.210938 44.15625 9.421875 44.4375 Z M 9.421875 44.4375 "/></g></g></g><g fill="#000000" fill-opacity="1"><g transform="translate(147.749556, 257.245251)"><g><path d="M 5.21875 -32.859375 C 5.351562 -33.273438 5.453125 -33.671875 5.515625 -34.046875 C 5.585938 -34.421875 5.625 -34.707031 5.625 -34.90625 L 5.625 -35.015625 C 5.5625 -35.078125 5.53125 -35.25 5.53125 -35.53125 C 5.394531 -36 5.664062 -36.234375 6.34375 -36.234375 C 7.84375 -36.234375 8.832031 -35.992188 9.3125 -35.515625 C 9.789062 -35.046875 10.203125 -34.46875 10.546875 -33.78125 L 10.4375 -33.78125 C 10.71875 -33.300781 11.007812 -32.835938 11.3125 -32.390625 C 11.613281 -31.953125 12.109375 -31.5625 12.796875 -31.21875 C 14.429688 -30.40625 15.46875 -29.347656 15.90625 -28.046875 C 16.351562 -26.753906 16.613281 -25.765625 16.6875 -25.078125 L 16.28125 -23.65625 C 15.9375 -22.5625 15.609375 -21.414062 15.296875 -20.21875 C 14.992188 -19.019531 14.773438 -17.738281 14.640625 -16.375 C 14.367188 -15.425781 14.046875 -14.421875 13.671875 -13.359375 C 13.296875 -12.296875 12.9375 -11.289062 12.59375 -10.34375 C 11.976562 -8.632812 11.414062 -6.992188 10.90625 -5.421875 C 10.394531 -3.859375 10.171875 -2.800781 10.234375 -2.25 C 10.304688 -1.769531 10.441406 -1.5 10.640625 -1.4375 C 11.460938 -1.976562 12.625 -3.203125 14.125 -5.109375 C 15.625 -7.023438 17.242188 -9.3125 18.984375 -11.96875 C 20.722656 -14.632812 22.28125 -17.234375 23.65625 -19.765625 L 24.0625 -20.578125 C 24.675781 -21.597656 25.320312 -22.773438 26 -24.109375 C 26.6875 -25.441406 26.992188 -26.515625 26.921875 -27.328125 C 26.859375 -27.398438 26.828125 -27.570312 26.828125 -27.84375 L 26.828125 -28.25 C 27.160156 -29 27.476562 -29.851562 27.78125 -30.8125 C 28.09375 -31.769531 28.390625 -32.660156 28.671875 -33.484375 C 29.003906 -34.566406 29.320312 -35.46875 29.625 -36.1875 C 29.9375 -36.90625 30.300781 -37.265625 30.71875 -37.265625 C 31.664062 -37.265625 32.785156 -36.71875 34.078125 -35.625 C 35.378906 -34.53125 36.097656 -32.992188 36.234375 -31.015625 C 36.378906 -30.398438 36.378906 -29.648438 36.234375 -28.765625 C 37.191406 -27.941406 37.804688 -27.304688 38.078125 -26.859375 C 38.359375 -26.421875 38.53125 -25.828125 38.59375 -25.078125 C 38.382812 -23.921875 38.144531 -22.707031 37.875 -21.4375 C 37.601562 -20.175781 37.296875 -18.929688 36.953125 -17.703125 L 36.65625 -16.484375 L 36.75 -14.640625 C 36.6875 -14.367188 36.550781 -14.023438 36.34375 -13.609375 C 36.132812 -13.203125 35.929688 -12.796875 35.734375 -12.390625 L 35.828125 -12.390625 C 35.421875 -11.566406 35.046875 -10.726562 34.703125 -9.875 C 34.359375 -9.019531 34.15625 -8.320312 34.09375 -7.78125 C 34.15625 -7.644531 34.203125 -7.539062 34.234375 -7.46875 C 34.273438 -7.40625 34.296875 -7.304688 34.296875 -7.171875 C 34.296875 -6.753906 34.257812 -6.445312 34.1875 -6.25 L 34.1875 -6.046875 C 33.03125 -3.585938 32.382812 -1.773438 32.25 -0.609375 C 32.3125 -0.546875 32.394531 -0.445312 32.5 -0.3125 C 32.601562 -0.175781 32.691406 -0.0703125 32.765625 0 C 33.304688 -0.0703125 34.101562 -0.632812 35.15625 -1.6875 C 36.21875 -2.75 37.378906 -4.046875 38.640625 -5.578125 C 39.910156 -7.117188 41.085938 -8.671875 42.171875 -10.234375 L 43.09375 -11.984375 C 43.84375 -13.140625 44.523438 -14.242188 45.140625 -15.296875 C 45.753906 -16.359375 46.40625 -17.4375 47.09375 -18.53125 L 46.984375 -18.53125 L 47.296875 -19.34375 C 47.566406 -20.09375 47.90625 -21.015625 48.3125 -22.109375 C 48.726562 -23.203125 49.222656 -24.175781 49.796875 -25.03125 C 50.378906 -25.882812 50.976562 -26.3125 51.59375 -26.3125 C 52.207031 -26.3125 52.582031 -25.9375 52.71875 -25.1875 C 52.789062 -24.914062 52.691406 -24.472656 52.421875 -23.859375 L 52.515625 -23.859375 C 52.515625 -23.785156 52.3125 -23.476562 51.90625 -22.9375 C 51.632812 -22.382812 51.289062 -21.679688 50.875 -20.828125 C 50.46875 -19.972656 50.300781 -19.273438 50.375 -18.734375 C 50.09375 -18.046875 49.695312 -17.273438 49.1875 -16.421875 C 48.675781 -15.578125 48.113281 -14.742188 47.5 -13.921875 C 47.363281 -13.304688 47.175781 -12.722656 46.9375 -12.171875 C 46.695312 -11.628906 46.40625 -11.085938 46.0625 -10.546875 L 41.96875 -4.8125 C 41.90625 -4.539062 41.820312 -4.335938 41.71875 -4.203125 C 41.613281 -4.066406 41.492188 -3.925781 41.359375 -3.78125 C 41.285156 -3.71875 41.179688 -3.617188 41.046875 -3.484375 C 40.910156 -3.347656 40.8125 -3.210938 40.75 -3.078125 C 39.925781 -1.640625 38.863281 -0.425781 37.5625 0.5625 C 36.269531 1.550781 35.007812 2.316406 33.78125 2.859375 C 32.550781 3.410156 31.628906 3.6875 31.015625 3.6875 C 30.742188 3.6875 30.519531 3.664062 30.34375 3.625 C 30.175781 3.59375 29.992188 3.546875 29.796875 3.484375 L 29.59375 3.484375 C 27.75 3.210938 26.242188 2.203125 25.078125 0.453125 C 23.921875 -1.285156 23.273438 -3.039062 23.140625 -4.8125 C 23.003906 -5.832031 23.035156 -6.71875 23.234375 -7.46875 C 23.035156 -7.601562 23.003906 -7.992188 23.140625 -8.640625 C 23.273438 -9.296875 23.410156 -10.035156 23.546875 -10.859375 C 23.679688 -11.804688 23.816406 -12.6875 23.953125 -13.5 C 24.085938 -14.320312 24.125 -14.734375 24.0625 -14.734375 C 23.988281 -15.078125 23.710938 -14.875 23.234375 -14.125 C 22.753906 -13.375 22.3125 -12.660156 21.90625 -11.984375 L 21.09375 -10.546875 C 20.820312 -10.203125 20.582031 -9.804688 20.375 -9.359375 C 20.164062 -8.921875 19.992188 -8.460938 19.859375 -7.984375 C 19.722656 -7.503906 19.519531 -6.957031 19.25 -6.34375 C 18.976562 -5.726562 18.566406 -5.179688 18.015625 -4.703125 C 16.585938 -2.796875 14.984375 -1.023438 13.203125 0.609375 C 11.429688 2.253906 9.757812 3.078125 8.1875 3.078125 C 6.957031 3.078125 5.675781 2.597656 4.34375 1.640625 C 3.019531 0.679688 2.253906 -0.890625 2.046875 -3.078125 C 2.046875 -3.484375 2.0625 -3.941406 2.09375 -4.453125 C 2.132812 -4.960938 2.222656 -5.523438 2.359375 -6.140625 C 1.941406 -6.828125 1.664062 -7.613281 1.53125 -8.5 L 0.71875 -14.03125 L 1.734375 -16.484375 C 1.867188 -16.828125 2.039062 -17.203125 2.25 -17.609375 C 2.457031 -18.015625 2.59375 -18.425781 2.65625 -18.84375 C 2.65625 -19.25 2.617188 -19.671875 2.546875 -20.109375 C 2.484375 -20.554688 2.453125 -20.984375 2.453125 -21.390625 C 2.796875 -22.753906 3.140625 -23.742188 3.484375 -24.359375 C 3.828125 -24.972656 4.097656 -25.960938 4.296875 -27.328125 L 4.609375 -30.296875 C 4.671875 -30.640625 4.753906 -31.03125 4.859375 -31.46875 C 4.960938 -31.914062 5.082031 -32.378906 5.21875 -32.859375 Z M 5.21875 -32.859375 "/></g></g></g><g fill="#000000" fill-opacity="1"><g transform="translate(193.710588, 257.245251)"><g><path d="M 1.734375 -20.46875 C 1.734375 -20.539062 2.003906 -21.070312 2.546875 -22.0625 C 3.097656 -23.050781 3.695312 -24.109375 4.34375 -25.234375 C 5 -26.359375 5.460938 -27.160156 5.734375 -27.640625 C 6.484375 -29.003906 7.234375 -30.503906 7.984375 -32.140625 C 8.734375 -33.785156 9.078125 -34.945312 9.015625 -35.625 C 9.015625 -35.832031 8.773438 -36.273438 8.296875 -36.953125 C 7.816406 -37.640625 7.300781 -38.320312 6.75 -39 C 6.207031 -39.75 5.695312 -40.484375 5.21875 -41.203125 C 4.738281 -41.921875 4.5 -42.414062 4.5 -42.6875 L 4.40625 -43.203125 C 4.132812 -43.609375 4 -44.019531 4 -44.4375 C 3.925781 -46.207031 4.109375 -48.097656 4.546875 -50.109375 C 4.992188 -52.117188 5.675781 -54.03125 6.59375 -55.84375 C 7.519531 -57.65625 8.664062 -59.140625 10.03125 -60.296875 C 11.394531 -61.460938 12.929688 -62.046875 14.640625 -62.046875 C 16.078125 -62.046875 17.335938 -61.617188 18.421875 -60.765625 C 19.515625 -59.910156 20.128906 -58.695312 20.265625 -57.125 C 20.398438 -55.488281 20.175781 -53.644531 19.59375 -51.59375 C 19.019531 -49.550781 18.304688 -47.539062 17.453125 -45.5625 C 16.597656 -43.582031 15.796875 -41.835938 15.046875 -40.328125 C 14.703125 -39.578125 14.445312 -39.046875 14.28125 -38.734375 C 14.113281 -38.429688 13.960938 -38.113281 13.828125 -37.78125 C 13.828125 -37.78125 13.84375 -37.796875 13.875 -37.828125 C 13.90625 -37.859375 13.957031 -37.875 14.03125 -37.875 C 14.164062 -37.875 14.316406 -37.753906 14.484375 -37.515625 C 14.648438 -37.273438 14.90625 -37.15625 15.25 -37.15625 L 15.453125 -37.15625 L 15.875 -36.34375 L 15.875 -36.453125 C 15.9375 -36.378906 15.96875 -36.320312 15.96875 -36.28125 C 15.96875 -36.25 15.96875 -36.234375 15.96875 -36.234375 C 16.375 -36.234375 16.816406 -36.335938 17.296875 -36.546875 L 17.203125 -36.546875 L 21.296875 -39 C 22.867188 -39.957031 24.179688 -40.65625 25.234375 -41.09375 C 26.296875 -41.539062 26.960938 -41.800781 27.234375 -41.875 C 27.710938 -41.875 28.566406 -41.460938 29.796875 -40.640625 C 31.023438 -39.828125 32.179688 -38.820312 33.265625 -37.625 C 34.359375 -36.425781 34.941406 -35.210938 35.015625 -33.984375 C 35.078125 -33.367188 34.882812 -32.582031 34.4375 -31.625 C 34 -30.675781 33.40625 -29.519531 32.65625 -28.15625 C 31.976562 -26.851562 31.226562 -25.363281 30.40625 -23.6875 C 29.582031 -22.019531 28.796875 -20.097656 28.046875 -17.921875 L 25.90625 -13 C 25.289062 -10.75 24.984375 -8.53125 24.984375 -6.34375 L 24.984375 -4.8125 L 25.1875 -2.765625 C 25.1875 -2.421875 25.148438 -2.21875 25.078125 -2.15625 L 25.1875 -1.234375 C 25.382812 0.273438 25.671875 1.847656 26.046875 3.484375 C 26.429688 5.117188 27.066406 5.9375 27.953125 5.9375 C 28.222656 5.9375 28.628906 5.765625 29.171875 5.421875 C 29.304688 5.554688 29.546875 5.625 29.890625 5.625 C 30.847656 5.625 32.039062 5.023438 33.46875 3.828125 C 34.90625 2.640625 36.375 1.054688 37.875 -0.921875 C 39.375 -2.898438 40.804688 -5.066406 42.171875 -7.421875 C 43.535156 -9.773438 44.664062 -12.113281 45.5625 -14.4375 C 46.238281 -16.070312 46.78125 -17.570312 47.1875 -18.9375 C 47.257812 -19.207031 47.445312 -19.800781 47.75 -20.71875 C 48.0625 -21.644531 48.421875 -22.550781 48.828125 -23.4375 C 49.242188 -24.332031 49.585938 -24.78125 49.859375 -24.78125 C 49.921875 -24.78125 49.953125 -24.503906 49.953125 -23.953125 C 49.953125 -23.679688 49.988281 -23.441406 50.0625 -23.234375 L 50.265625 -23.03125 L 50.15625 -23.03125 C 50.5 -22.832031 50.632812 -22.269531 50.5625 -21.34375 C 50.5 -20.425781 49.820312 -18.394531 48.53125 -15.25 L 47.90625 -13.515625 L 47.09375 -11.875 C 46.550781 -10.78125 45.898438 -9.5 45.140625 -8.03125 C 44.390625 -6.5625 43.847656 -5.59375 43.515625 -5.125 L 42.484375 -3.578125 C 41.804688 -2.554688 41.207031 -1.515625 40.6875 -0.453125 C 40.175781 0.597656 39.648438 1.671875 39.109375 2.765625 C 36.785156 5.898438 34.582031 7.910156 32.5 8.796875 C 30.414062 9.691406 28.421875 10.140625 26.515625 10.140625 C 22.285156 9.796875 18.992188 8.085938 16.640625 5.015625 C 14.285156 1.941406 12.898438 -1.878906 12.484375 -6.453125 C 12.421875 -7.066406 12.457031 -7.78125 12.59375 -8.59375 C 12.726562 -9.414062 12.898438 -10.269531 13.109375 -11.15625 C 13.304688 -11.976562 13.488281 -12.832031 13.65625 -13.71875 C 13.832031 -14.601562 13.957031 -15.457031 14.03125 -16.28125 C 14.03125 -17.988281 14.351562 -19.691406 15 -21.390625 C 15.644531 -23.097656 16.3125 -24.601562 17 -25.90625 C 17.539062 -26.988281 18.03125 -28.039062 18.46875 -29.0625 C 18.914062 -30.09375 19.070312 -31.050781 18.9375 -31.9375 C 18.9375 -31.875 18.921875 -31.859375 18.890625 -31.890625 C 18.859375 -31.921875 18.84375 -31.9375 18.84375 -31.9375 L 18.9375 -32.765625 C 19.007812 -32.898438 19.046875 -33.101562 19.046875 -33.375 L 19.046875 -33.484375 C 18.910156 -33.484375 18.804688 -33.445312 18.734375 -33.375 C 18.523438 -33.300781 18.316406 -33.195312 18.109375 -33.0625 C 17.910156 -32.925781 17.742188 -32.859375 17.609375 -32.859375 C 17.472656 -32.859375 17.367188 -32.894531 17.296875 -32.96875 C 17.023438 -32.832031 16.859375 -32.765625 16.796875 -32.765625 C 16.242188 -32.765625 15.554688 -32.929688 14.734375 -33.265625 C 14.460938 -33.410156 14.125 -33.566406 13.71875 -33.734375 C 13.3125 -33.898438 12.9375 -33.984375 12.59375 -33.984375 C 12.457031 -33.984375 12.320312 -33.914062 12.1875 -33.78125 C 11.90625 -33.4375 11.628906 -33.023438 11.359375 -32.546875 C 11.085938 -32.078125 10.816406 -31.5 10.546875 -30.8125 C 10.410156 -30.332031 10.34375 -30.007812 10.34375 -29.84375 C 10.34375 -29.675781 10.171875 -29.382812 9.828125 -28.96875 L 9.828125 -29.078125 L 8.296875 -25.90625 C 8.160156 -25.488281 7.816406 -24.851562 7.265625 -24 C 6.722656 -23.15625 6.144531 -22.269531 5.53125 -21.34375 C 4.914062 -20.425781 4.332031 -19.625 3.78125 -18.9375 C 3.238281 -18.257812 2.898438 -17.921875 2.765625 -17.921875 C 2.492188 -17.921875 2.285156 -18.109375 2.140625 -18.484375 C 2.003906 -18.859375 1.867188 -19.519531 1.734375 -20.46875 Z M -39.921875 10.03125 C -38.765625 10.03125 -37.601562 10.03125 -36.4375 10.03125 C -35.28125 10.03125 -34.15625 10.066406 -33.0625 10.140625 C -26.988281 9.316406 -21.800781 8.90625 -17.5 8.90625 C -11.632812 8.90625 -6.632812 9.46875 -2.5 10.59375 C 1.625 11.71875 5.628906 13.066406 9.515625 14.640625 C 12.929688 14.910156 15.695312 15.59375 17.8125 16.6875 C 19.925781 17.78125 21.613281 19.007812 22.875 20.375 C 24.144531 21.738281 25.117188 23 25.796875 24.15625 L 24.359375 25.796875 C 22.179688 28.328125 20.507812 30.15625 19.34375 31.28125 C 18.1875 32.40625 17.300781 32.96875 16.6875 32.96875 C 16.207031 32.96875 15.710938 32.554688 15.203125 31.734375 C 14.691406 30.910156 14.0625 29.851562 13.3125 28.5625 C 12.625 27.40625 11.289062 26.347656 9.3125 25.390625 C 7.332031 24.429688 5.007812 23.523438 2.34375 22.671875 C -0.3125 21.816406 -3.070312 21.015625 -5.9375 20.265625 C -7.4375 19.859375 -8.882812 19.46875 -10.28125 19.09375 C -11.6875 18.71875 -13.070312 18.289062 -14.4375 17.8125 C -19.207031 16.445312 -23.8125 15.539062 -28.25 15.09375 C -32.6875 14.65625 -37.601562 14.300781 -43 14.03125 L -44.125 14.03125 C -44.257812 14.03125 -44.328125 14.03125 -44.328125 14.03125 C -44.398438 14.03125 -44.46875 13.992188 -44.53125 13.921875 C -44.601562 13.859375 -44.707031 13.828125 -44.84375 13.828125 C -44.90625 13.828125 -44.972656 13.859375 -45.046875 13.921875 C -46.753906 14.191406 -48.765625 14.394531 -51.078125 14.53125 C -52.585938 14.601562 -54.070312 14.707031 -55.53125 14.84375 C -57 14.976562 -58.28125 15.179688 -59.375 15.453125 C -60.195312 15.660156 -61.34375 15.796875 -62.8125 15.859375 C -64.28125 15.929688 -65.726562 15.96875 -67.15625 15.96875 C -68.3125 16.039062 -69.382812 16.078125 -70.375 16.078125 C -71.375 16.078125 -72.144531 16.144531 -72.6875 16.28125 C -72.957031 16.414062 -73.195312 16.484375 -73.40625 16.484375 C -73.46875 16.484375 -73.515625 16.460938 -73.546875 16.421875 C -73.585938 16.390625 -73.640625 16.375 -73.703125 16.375 L -78.9375 16.28125 L -74.9375 14.53125 C -71.320312 13.375 -68.78125 12.625 -67.3125 12.28125 C -65.84375 11.9375 -64.867188 11.734375 -64.390625 11.671875 C -63.640625 11.671875 -62.90625 11.617188 -62.1875 11.515625 C -61.476562 11.410156 -60.78125 11.289062 -60.09375 11.15625 C -57.289062 10.8125 -54.148438 10.535156 -50.671875 10.328125 C -47.191406 10.128906 -43.609375 10.03125 -39.921875 10.03125 Z M 15.359375 -53.75 C 14.742188 -53.476562 14.0625 -52.796875 13.3125 -51.703125 C 12.5625 -50.609375 11.894531 -49.394531 11.3125 -48.0625 C 10.726562 -46.726562 10.4375 -45.550781 10.4375 -44.53125 C 10.570312 -43.78125 10.757812 -43.046875 11 -42.328125 C 11.238281 -41.609375 11.460938 -41.015625 11.671875 -40.546875 L 11.765625 -40.125 C 12.929688 -42.582031 13.941406 -45.019531 14.796875 -47.4375 C 15.648438 -49.863281 16.007812 -51.660156 15.875 -52.828125 C 15.875 -53.304688 15.703125 -53.613281 15.359375 -53.75 Z M 15.359375 -53.75 "/></g></g></g><g fill="#000000" fill-opacity="1"><g transform="translate(238.545629, 257.245251)"><g><path d="M 26.109375 -14.125 L 25.484375 -13 C 24.867188 -12.113281 24.21875 -11.191406 23.53125 -10.234375 C 22.851562 -9.273438 22.109375 -8.351562 21.296875 -7.46875 L 20.375 -6.453125 C 19.894531 -5.972656 19.429688 -5.457031 18.984375 -4.90625 C 18.546875 -4.363281 18.085938 -3.890625 17.609375 -3.484375 L 17.09375 -3.171875 L 17.203125 -3.171875 C 16.515625 -2.691406 15.847656 -2.25 15.203125 -1.84375 C 14.554688 -1.4375 13.925781 -1.09375 13.3125 -0.8125 L 13.3125 -0.921875 C 12.625 -0.578125 11.921875 -0.351562 11.203125 -0.25 C 10.492188 -0.15625 9.765625 -0.109375 9.015625 -0.109375 C 6.960938 -0.515625 5.320312 -1.414062 4.09375 -2.8125 C 2.863281 -4.207031 1.992188 -5.859375 1.484375 -7.765625 C 0.972656 -9.679688 0.71875 -11.5625 0.71875 -13.40625 C 0.71875 -13.75 0.734375 -14.070312 0.765625 -14.375 C 0.796875 -14.6875 0.8125 -14.976562 0.8125 -15.25 L 0.8125 -17.09375 C 0.957031 -18.113281 1.128906 -19.171875 1.328125 -20.265625 C 1.535156 -21.359375 1.773438 -22.519531 2.046875 -23.75 L 3.6875 -28.96875 C 4.300781 -30.46875 4.894531 -31.953125 5.46875 -33.421875 C 6.050781 -34.890625 6.550781 -36.304688 6.96875 -37.671875 L 6.96875 -38.28125 C 7.300781 -39.925781 7.945312 -40.953125 8.90625 -41.359375 C 9.25 -41.628906 9.757812 -41.765625 10.4375 -41.765625 C 12.488281 -41.765625 14.09375 -40.878906 15.25 -39.109375 C 16.414062 -37.335938 17.132812 -35.5625 17.40625 -33.78125 C 17.539062 -32.6875 17.367188 -31.425781 16.890625 -30 L 16.6875 -29.171875 C 16.6875 -29.035156 16.722656 -28.96875 16.796875 -28.96875 L 16.890625 -28.671875 C 16.960938 -28.523438 17 -28.332031 17 -28.09375 C 17 -27.863281 17 -27.675781 17 -27.53125 C 17.0625 -27.394531 17.09375 -27.191406 17.09375 -26.921875 C 17.09375 -26.648438 17.09375 -26.445312 17.09375 -26.3125 C 17.09375 -26.101562 17.09375 -25.894531 17.09375 -25.6875 C 17.09375 -25.488281 17.128906 -25.285156 17.203125 -25.078125 C 16.929688 -24.265625 16.65625 -23.476562 16.375 -22.71875 C 16.101562 -21.96875 15.832031 -21.289062 15.5625 -20.6875 C 15.488281 -20.269531 15.285156 -19.753906 14.953125 -19.140625 L 14.953125 -18.53125 C 13.921875 -15.726562 13.132812 -13 12.59375 -10.34375 L 12.6875 -10.234375 C 12.757812 -9.960938 12.660156 -9.691406 12.390625 -9.421875 L 11.984375 -9.015625 C 11.640625 -8.328125 11.347656 -7.707031 11.109375 -7.15625 C 10.867188 -6.613281 10.75 -6.101562 10.75 -5.625 C 10.75 -4.8125 11.191406 -4.300781 12.078125 -4.09375 C 12.765625 -4.363281 13.992188 -5.285156 15.765625 -6.859375 C 16.378906 -7.203125 16.972656 -7.660156 17.546875 -8.234375 C 18.128906 -8.816406 18.660156 -9.382812 19.140625 -9.9375 L 19.859375 -10.75 C 21.085938 -12.25 22.382812 -13.988281 23.75 -15.96875 C 25.113281 -17.945312 26.410156 -19.976562 27.640625 -22.0625 C 28.867188 -24.144531 29.925781 -26.070312 30.8125 -27.84375 C 31.289062 -28.320312 31.800781 -28.5625 32.34375 -28.5625 C 32.6875 -28.5625 32.960938 -28.40625 33.171875 -28.09375 C 33.378906 -27.789062 33.34375 -27.300781 33.0625 -26.625 C 33.195312 -26.414062 33.164062 -26.207031 32.96875 -26 L 32.96875 -25.90625 C 32.550781 -25.351562 32.207031 -24.804688 31.9375 -24.265625 L 31.125 -22.828125 C 30.4375 -21.734375 29.71875 -20.503906 28.96875 -19.140625 C 28.21875 -17.773438 27.363281 -16.378906 26.40625 -14.953125 L 26.40625 -15.046875 L 26.109375 -14.234375 Z M 25.1875 -59.078125 L 23.953125 -57.015625 C 23.066406 -55.515625 22.398438 -54.5625 21.953125 -54.15625 C 21.515625 -53.75 20.882812 -53.546875 20.0625 -53.546875 C 18.695312 -53.679688 17.332031 -54.15625 15.96875 -54.96875 C 15.289062 -55.582031 14.660156 -56.46875 14.078125 -57.625 C 13.492188 -58.789062 13.203125 -60.054688 13.203125 -61.421875 C 13.140625 -62.515625 13.273438 -63.421875 13.609375 -64.140625 C 13.953125 -64.859375 14.363281 -65.453125 14.84375 -65.921875 C 16.414062 -67.359375 17.984375 -68.078125 19.546875 -68.078125 C 20.304688 -68.148438 21.316406 -67.945312 22.578125 -67.46875 C 23.835938 -66.988281 24.910156 -66.375 25.796875 -65.625 C 26.484375 -65.070312 26.925781 -64.457031 27.125 -63.78125 C 27.195312 -63.226562 27.144531 -62.726562 26.96875 -62.28125 C 26.800781 -61.84375 26.546875 -61.421875 26.203125 -61.015625 L 26.3125 -61.015625 C 26.175781 -60.742188 26.019531 -60.4375 25.84375 -60.09375 C 25.675781 -59.75 25.457031 -59.410156 25.1875 -59.078125 Z M 25.1875 -59.078125 "/></g></g></g><g fill="#000000" fill-opacity="1"><g transform="translate(263.215142, 257.245251)"><g><path d="M 26.109375 -14.125 L 25.484375 -13 C 24.867188 -12.113281 24.21875 -11.191406 23.53125 -10.234375 C 22.851562 -9.273438 22.109375 -8.351562 21.296875 -7.46875 L 20.375 -6.453125 C 19.894531 -5.972656 19.429688 -5.457031 18.984375 -4.90625 C 18.546875 -4.363281 18.085938 -3.890625 17.609375 -3.484375 L 17.09375 -3.171875 L 17.203125 -3.171875 C 16.515625 -2.691406 15.847656 -2.25 15.203125 -1.84375 C 14.554688 -1.4375 13.925781 -1.09375 13.3125 -0.8125 L 13.3125 -0.921875 C 12.625 -0.578125 11.921875 -0.351562 11.203125 -0.25 C 10.492188 -0.15625 9.765625 -0.109375 9.015625 -0.109375 C 6.960938 -0.515625 5.320312 -1.414062 4.09375 -2.8125 C 2.863281 -4.207031 1.992188 -5.859375 1.484375 -7.765625 C 0.972656 -9.679688 0.71875 -11.5625 0.71875 -13.40625 C 0.71875 -13.75 0.734375 -14.070312 0.765625 -14.375 C 0.796875 -14.6875 0.8125 -14.976562 0.8125 -15.25 L 0.8125 -17.09375 C 0.957031 -18.113281 1.128906 -19.171875 1.328125 -20.265625 C 1.535156 -21.359375 1.773438 -22.519531 2.046875 -23.75 L 3.6875 -28.96875 C 4.300781 -30.46875 4.894531 -31.953125 5.46875 -33.421875 C 6.050781 -34.890625 6.550781 -36.304688 6.96875 -37.671875 L 6.96875 -38.28125 C 7.300781 -39.925781 7.945312 -40.953125 8.90625 -41.359375 C 9.25 -41.628906 9.757812 -41.765625 10.4375 -41.765625 C 12.488281 -41.765625 14.09375 -40.878906 15.25 -39.109375 C 16.414062 -37.335938 17.132812 -35.5625 17.40625 -33.78125 C 17.539062 -32.6875 17.367188 -31.425781 16.890625 -30 L 16.6875 -29.171875 C 16.6875 -29.035156 16.722656 -28.96875 16.796875 -28.96875 L 16.890625 -28.671875 C 16.960938 -28.523438 17 -28.332031 17 -28.09375 C 17 -27.863281 17 -27.675781 17 -27.53125 C 17.0625 -27.394531 17.09375 -27.191406 17.09375 -26.921875 C 17.09375 -26.648438 17.09375 -26.445312 17.09375 -26.3125 C 17.09375 -26.101562 17.09375 -25.894531 17.09375 -25.6875 C 17.09375 -25.488281 17.128906 -25.285156 17.203125 -25.078125 C 16.929688 -24.265625 16.65625 -23.476562 16.375 -22.71875 C 16.101562 -21.96875 15.832031 -21.289062 15.5625 -20.6875 C 15.488281 -20.269531 15.285156 -19.753906 14.953125 -19.140625 L 14.953125 -18.53125 C 13.921875 -15.726562 13.132812 -13 12.59375 -10.34375 L 12.6875 -10.234375 C 12.757812 -9.960938 12.660156 -9.691406 12.390625 -9.421875 L 11.984375 -9.015625 C 11.640625 -8.328125 11.347656 -7.707031 11.109375 -7.15625 C 10.867188 -6.613281 10.75 -6.101562 10.75 -5.625 C 10.75 -4.8125 11.191406 -4.300781 12.078125 -4.09375 C 12.765625 -4.363281 13.992188 -5.285156 15.765625 -6.859375 C 16.378906 -7.203125 16.972656 -7.660156 17.546875 -8.234375 C 18.128906 -8.816406 18.660156 -9.382812 19.140625 -9.9375 L 19.859375 -10.75 C 21.085938 -12.25 22.382812 -13.988281 23.75 -15.96875 C 25.113281 -17.945312 26.410156 -19.976562 27.640625 -22.0625 C 28.867188 -24.144531 29.925781 -26.070312 30.8125 -27.84375 C 31.289062 -28.320312 31.800781 -28.5625 32.34375 -28.5625 C 32.6875 -28.5625 32.960938 -28.40625 33.171875 -28.09375 C 33.378906 -27.789062 33.34375 -27.300781 33.0625 -26.625 C 33.195312 -26.414062 33.164062 -26.207031 32.96875 -26 L 32.96875 -25.90625 C 32.550781 -25.351562 32.207031 -24.804688 31.9375 -24.265625 L 31.125 -22.828125 C 30.4375 -21.734375 29.71875 -20.503906 28.96875 -19.140625 C 28.21875 -17.773438 27.363281 -16.378906 26.40625 -14.953125 L 26.40625 -15.046875 L 26.109375 -14.234375 Z M 25.1875 -59.078125 L 23.953125 -57.015625 C 23.066406 -55.515625 22.398438 -54.5625 21.953125 -54.15625 C 21.515625 -53.75 20.882812 -53.546875 20.0625 -53.546875 C 18.695312 -53.679688 17.332031 -54.15625 15.96875 -54.96875 C 15.289062 -55.582031 14.660156 -56.46875 14.078125 -57.625 C 13.492188 -58.789062 13.203125 -60.054688 13.203125 -61.421875 C 13.140625 -62.515625 13.273438 -63.421875 13.609375 -64.140625 C 13.953125 -64.859375 14.363281 -65.453125 14.84375 -65.921875 C 16.414062 -67.359375 17.984375 -68.078125 19.546875 -68.078125 C 20.304688 -68.148438 21.316406 -67.945312 22.578125 -67.46875 C 23.835938 -66.988281 24.910156 -66.375 25.796875 -65.625 C 26.484375 -65.070312 26.925781 -64.457031 27.125 -63.78125 C 27.195312 -63.226562 27.144531 -62.726562 26.96875 -62.28125 C 26.800781 -61.84375 26.546875 -61.421875 26.203125 -61.015625 L 26.3125 -61.015625 C 26.175781 -60.742188 26.019531 -60.4375 25.84375 -60.09375 C 25.675781 -59.75 25.457031 -59.410156 25.1875 -59.078125 Z M 25.1875 -59.078125 "/></g></g></g></svg>